# xmcd
#
# Track frame offsets:
#	150
#	11589
#	22542
#	36336
#	50354
#	63522
#	74533
#	89006
#	105512
#	121613
#	130943
#	146764
#	163373
#	178455
#	195823
#	208573
#	222114
#
# Disc length: 3206 seconds
#
# Revision: 0
# Processed by: cddbd v1.5.2PL0 Copyright (c) Steve Scherf et al.
# Submitted via: dBpowerAMP V4.0
#
DISCID=f20c8411
DTITLE=Wood and Steel - Just A Cold Pot Of Coffee
DYEAR=2002
DGENRE=Bluegrass
TTITLE0=01_Ashes Of Love
TTITLE1=02_Thanks A Lot
TTITLE2=03_Gonna Settle Down
TTITLE3=04_One More Day
TTITLE4=05_Big Ol' Mess Of The Blues
TTITLE5=06_Man With The Blues
TTITLE6=07_Memories Of You Left Here To Stay
TTITLE7=08_Mary Anne
TTITLE8=09_New Camptown Races
TTITLE9=10_Walkin' In Jerusalem
TTITLE10=11_I Wonder Where You Are Tonight
TTITLE11=12_Rambler's Choice
TTITLE12=13_Maybe You Will Change Your Mind
TTITLE13=14_Cold Pot Of Coffee
TTITLE14=15_Book Of The Past
TTITLE15=16_Unwanted Love
TTITLE16=17_House Of Gold
EXTD=Doggone Good Bluegrass !
EXTT0=
EXTT1=
EXTT2=
EXTT3=
EXTT4=
EXTT5=
EXTT6=
EXTT7=
EXTT8=
EXTT9=
EXTT10=
EXTT11=
EXTT12=
EXTT13=
EXTT14=
EXTT15=
EXTT16=
PLAYORDER=
